<svg width="22" height="24" viewBox="0 0 22 24" fill="none" xmlns="http://www.w3.org/2000/svg">
<path fill-rule="evenodd" clip-rule="evenodd" d="M12.4546 1.01539L12.5521 1L12.651 1.00133L12.6974 1.00787L12.7491 1.01975L12.7716 1.02865L12.7953 1.03476L12.8442 1.05561L12.8855 1.07759L12.9338 1.10928L12.9663 1.13471L13.0361 1.20448L13.0932 1.28529L13.1236 1.34507L13.1554 1.43879L13.1708 1.53627L13.1722 1.5775V9.10393H19.5408C19.9801 9.10393 20.2472 9.5668 20.0603 9.93931L20.009 10.0234L10.7457 22.7605C10.4365 23.1856 9.78667 23.0071 9.70665 22.5211L9.69851 22.4199V14.8935H3.32999C2.89061 14.8935 2.62353 14.4306 2.81044 14.0581L2.86177 13.974L12.1505 1.20448L12.2203 1.13471L12.3011 1.07759L12.3609 1.04714L12.4546 1.01539ZM12.0143 3.35721L4.4659 13.7356H10.2775C10.5617 13.7356 10.7981 13.9404 10.8471 14.2105L10.8564 14.3145V20.6379L18.4025 10.2618H12.5933C12.3091 10.2618 12.0727 10.057 12.0237 9.78696L12.0143 9.68289V3.35721Z" fill="#666666"/>
<path d="M12.4546 1.01539L12.3922 0.620286L12.3585 0.625603L12.3262 0.636544L12.4546 1.01539ZM12.5521 1L12.5574 0.600036L12.5234 0.599577L12.4897 0.604895L12.5521 1ZM12.651 1.00133L12.7069 0.605253L12.6818 0.60171L12.6564 0.601369L12.651 1.00133ZM12.6974 1.00787L12.7868 0.617999L12.7701 0.614178L12.7532 0.611791L12.6974 1.00787ZM12.7491 1.01975L12.8964 0.647845L12.8682 0.636667L12.8386 0.629878L12.7491 1.01975ZM12.7716 1.02865L12.6243 1.40055L12.6475 1.40973L12.6717 1.41596L12.7716 1.02865ZM12.7953 1.03476L12.9523 0.666852L12.9245 0.654999L12.8953 0.647452L12.7953 1.03476ZM12.8442 1.05561L13.032 0.702428L13.0169 0.694405L13.0011 0.687698L12.8442 1.05561ZM12.8855 1.07759L13.1049 0.743111L13.0895 0.733032L13.0733 0.724405L12.8855 1.07759ZM12.9338 1.10928L13.1804 0.794292L13.1672 0.783978L13.1532 0.7748L12.9338 1.10928ZM12.9663 1.13471L13.2491 0.851864L13.232 0.834691L13.2129 0.819722L12.9663 1.13471ZM13.0361 1.20448L13.3627 0.973594L13.343 0.945752L13.3189 0.921643L13.0361 1.20448ZM13.0932 1.28529L13.4496 1.10378L13.4365 1.07801L13.4198 1.0544L13.0932 1.28529ZM13.1236 1.34507L13.5025 1.21671L13.4932 1.18933L13.4801 1.16356L13.1236 1.34507ZM13.1554 1.43879L13.5505 1.37641L13.5452 1.34273L13.5342 1.31044L13.1554 1.43879ZM13.1708 1.53627L13.5705 1.52214L13.5697 1.49787L13.5659 1.47388L13.1708 1.53627ZM13.1722 1.5775H13.5725L13.572 1.56337L13.1722 1.5775ZM13.1722 9.10393H12.7722V9.50393H13.1722V9.10393ZM20.0603 9.93931L20.4018 10.1477L20.4104 10.1335L20.4178 10.1187L20.0603 9.93931ZM20.009 10.0234L20.3325 10.2587L20.342 10.2456L20.3504 10.2318L20.009 10.0234ZM10.7457 22.7605L10.4222 22.5252L10.7457 22.7605ZM9.70665 22.5211L9.30793 22.5532L9.30926 22.5697L9.31196 22.5861L9.70665 22.5211ZM9.69851 22.4199H9.29851V22.436L9.2998 22.452L9.69851 22.4199ZM9.69851 14.8935H10.0985V14.4935H9.69851V14.8935ZM2.81044 14.0581L2.46899 13.8498L2.46036 13.8639L2.45293 13.8787L2.81044 14.0581ZM2.86177 13.974L2.53829 13.7387L2.52876 13.7518L2.52031 13.7657L2.86177 13.974ZM12.1505 1.20448L11.8677 0.921643L11.8455 0.943822L11.827 0.969186L12.1505 1.20448ZM12.2203 1.13471L11.9894 0.808072L11.9615 0.827754L11.9374 0.851864L12.2203 1.13471ZM12.3011 1.07759L12.1196 0.721142L12.0938 0.734263L12.0702 0.750954L12.3011 1.07759ZM12.3609 1.04714L12.2325 0.668298L12.2051 0.677577L12.1794 0.690699L12.3609 1.04714ZM12.0143 3.35721H12.4143V2.12721L11.6908 3.12193L12.0143 3.35721ZM4.4659 13.7356L4.14241 13.5003L3.68036 14.1356H4.4659V13.7356ZM10.8471 14.2105L11.2455 14.1748L11.2439 14.1568L11.2407 14.139L10.8471 14.2105ZM10.8564 14.3145H11.2564V14.2967L11.2548 14.2788L10.8564 14.3145ZM10.8564 20.6379H10.4564V21.868L11.1799 20.8732L10.8564 20.6379ZM18.4025 10.2618L18.726 10.4971L19.188 9.86185H18.4025V10.2618ZM12.0237 9.78696L11.6253 9.82267L11.6269 9.84064L11.6301 9.85839L12.0237 9.78696ZM12.0143 9.68289H11.6143V9.70078L11.6159 9.7186L12.0143 9.68289ZM12.517 1.4105L12.6144 1.39511L12.4897 0.604895L12.3922 0.620286L12.517 1.4105ZM12.5467 1.39996L12.6456 1.4013L12.6564 0.601369L12.5574 0.600036L12.5467 1.39996ZM12.5951 1.39741L12.6415 1.40395L12.7532 0.611791L12.7069 0.605253L12.5951 1.39741ZM12.6079 1.39774L12.6597 1.40962L12.8386 0.629878L12.7868 0.617999L12.6079 1.39774ZM12.6019 1.39165L12.6243 1.40055L12.9189 0.656744L12.8964 0.647845L12.6019 1.39165ZM12.6717 1.41596L12.6954 1.42208L12.8953 0.647452L12.8716 0.641336L12.6717 1.41596ZM12.6383 1.40268L12.6872 1.42352L13.0011 0.687698L12.9523 0.666852L12.6383 1.40268ZM12.6564 1.40879L12.6977 1.43077L13.0733 0.724405L13.032 0.702428L12.6564 1.40879ZM12.6661 1.41206L12.7144 1.44375L13.1532 0.7748L13.1049 0.743111L12.6661 1.41206ZM12.6873 1.42426L12.7198 1.44969L13.2129 0.819722L13.1804 0.794292L12.6873 1.42426ZM12.6835 1.41755L12.7532 1.48733L13.3189 0.921643L13.2491 0.851864L12.6835 1.41755ZM12.7095 1.43538L12.7666 1.51618L13.4198 1.0544L13.3627 0.973594L12.7095 1.43538ZM12.7368 1.4668L12.7672 1.52658L13.4801 1.16356L13.4496 1.10378L12.7368 1.4668ZM12.7448 1.47343L12.7766 1.56715L13.5342 1.31044L13.5025 1.21671L12.7448 1.47343ZM12.7603 1.50118L12.7757 1.59865L13.5659 1.47388L13.5505 1.37641L12.7603 1.50118ZM12.771 1.5504L12.7725 1.59163L13.572 1.56337L13.5705 1.52214L12.771 1.5504ZM12.7722 1.5775V9.10393H13.5722V1.5775H12.7722ZM13.1722 9.50393H19.5408V8.70393H13.1722V9.50393ZM19.5408 9.50393C19.6743 9.50393 19.7599 9.64602 19.7028 9.75992L20.4178 10.1187C20.7345 9.48757 20.286 8.70393 19.5408 8.70393V9.50393ZM19.7189 9.73096L19.6675 9.81507L20.3504 10.2318L20.4018 10.1477L19.7189 9.73096ZM19.6855 9.78815L10.4222 22.5252L11.0692 22.9957L20.3325 10.2587L19.6855 9.78815ZM10.4222 22.5252C10.3729 22.5929 10.3059 22.6114 10.2363 22.5942C10.161 22.5756 10.1123 22.5226 10.1013 22.4562L9.31196 22.5861C9.44749 23.4092 10.5433 23.7189 11.0692 22.9957L10.4222 22.5252ZM10.1054 22.4891L10.0972 22.3879L9.2998 22.452L9.30793 22.5532L10.1054 22.4891ZM10.0985 22.4199V14.8935H9.29851V22.4199H10.0985ZM9.69851 14.4935H3.32999V15.2935H9.69851V14.4935ZM3.32999 14.4935C3.19642 14.4935 3.11081 14.3514 3.16796 14.2375L2.45293 13.8787C2.13624 14.5099 2.5848 15.2935 3.32999 15.2935V14.4935ZM3.1519 14.2665L3.20322 14.1824L2.52031 13.7657L2.46899 13.8498L3.1519 14.2665ZM3.18524 14.2093L12.474 1.43978L11.827 0.969186L2.53829 13.7387L3.18524 14.2093ZM12.4333 1.48733L12.5031 1.41755L11.9374 0.851864L11.8677 0.921643L12.4333 1.48733ZM12.4512 1.46134L12.532 1.40422L12.0702 0.750954L11.9894 0.808072L12.4512 1.46134ZM12.4826 1.43403L12.5424 1.40359L12.1794 0.690699L12.1196 0.721142L12.4826 1.43403ZM12.4892 1.42599L12.5829 1.39424L12.3262 0.636544L12.2325 0.668298L12.4892 1.42599ZM11.6908 3.12193L4.14241 13.5003L4.78939 13.9709L12.3378 3.59249L11.6908 3.12193ZM4.4659 14.1356H10.2775V13.3356H4.4659V14.1356ZM10.2775 14.1356C10.3649 14.1356 10.4384 14.1987 10.4535 14.2819L11.2407 14.139C11.1577 13.6821 10.7585 13.3356 10.2775 13.3356V14.1356ZM10.4487 14.2462L10.458 14.3503L11.2548 14.2788L11.2455 14.1748L10.4487 14.2462ZM10.4564 14.3145V20.6379H11.2564V14.3145H10.4564ZM11.1799 20.8732L18.726 10.4971L18.079 10.0266L10.5329 20.4026L11.1799 20.8732ZM18.4025 9.86185H12.5933V10.6618H18.4025V9.86185ZM12.5933 9.86185C12.5059 9.86185 12.4323 9.79875 12.4172 9.71552L11.6301 9.85839C11.713 10.3153 12.1123 10.6618 12.5933 10.6618V9.86185ZM12.4221 9.75125L12.4127 9.64718L11.6159 9.7186L11.6253 9.82267L12.4221 9.75125ZM12.4143 9.68289V3.35721H11.6143V9.68289H12.4143Z" fill="#596780"/>
</svg>
