<svg width="22" height="23" viewBox="0 0 22 23" fill="none" xmlns="http://www.w3.org/2000/svg">
<path d="M7.79159 17.9167H7.33325C3.66659 17.9167 1.83325 17 1.83325 12.4167V7.83337C1.83325 4.16671 3.66659 2.33337 7.33325 2.33337H14.6666C18.3333 2.33337 20.1666 4.16671 20.1666 7.83337V12.4167C20.1666 16.0834 18.3333 17.9167 14.6666 17.9167H14.2083C13.9241 17.9167 13.6491 18.0542 13.4749 18.2834L12.0999 20.1167C11.4949 20.9234 10.5049 20.9234 9.89992 20.1167L8.52492 18.2834C8.37825 18.0817 8.03909 17.9167 7.79159 17.9167Z" stroke="#596780" stroke-width="2" stroke-miterlimit="10" stroke-linecap="round" stroke-linejoin="round"/>
<path d="M14.6635 10.5833H14.6717" stroke="#596780" stroke-width="2" stroke-linecap="round" stroke-linejoin="round"/>
<path d="M10.9958 10.5833H11.004" stroke="#596780" stroke-width="2" stroke-linecap="round" stroke-linejoin="round"/>
<path d="M7.3283 10.5833H7.33653" stroke="#596780" stroke-width="2" stroke-linecap="round" stroke-linejoin="round"/>
</svg>
