<svg width="22" height="23" viewBox="0 0 22 23" fill="none" xmlns="http://www.w3.org/2000/svg">
<path d="M2.75 8.85087V14.14C2.75 16.0834 2.75 16.0834 4.58333 17.3209L9.625 20.2359C10.3858 20.6759 11.6233 20.6759 12.375 20.2359L17.4167 17.3209C19.25 16.0834 19.25 16.0834 19.25 14.1492V8.85087C19.25 6.9167 19.25 6.9167 17.4167 5.6792L12.375 2.7642C11.6233 2.3242 10.3858 2.3242 9.625 2.7642L4.58333 5.6792C2.75 6.9167 2.75 6.9167 2.75 8.85087Z" stroke="#596780" stroke-width="2" stroke-linecap="round" stroke-linejoin="round"/>
<path d="M11 14.25C12.5188 14.25 13.75 13.0188 13.75 11.5C13.75 9.98122 12.5188 8.75 11 8.75C9.48122 8.75 8.25 9.98122 8.25 11.5C8.25 13.0188 9.48122 14.25 11 14.25Z" stroke="#596780" stroke-width="2" stroke-linecap="round" stroke-linejoin="round"/>
</svg>
